<svg width="243" height="72" viewBox="0 0 243 72" fill="none" xmlns="http://www.w3.org/2000/svg">
<path d="M94.8527 51.2581C92.4236 51.2581 90.3165 50.8853 88.5313 50.1398C86.7753 49.3943 85.4291 48.4194 84.4926 47.2151C83.5561 45.9821 83.0585 44.6631 83 43.2581C83 43.0287 83.0878 42.828 83.2634 42.6559C83.4683 42.4552 83.7024 42.3548 83.9658 42.3548H86.2046C86.7607 42.3548 87.1411 42.6416 87.346 43.2151C87.6094 44.4194 88.3557 45.4516 89.5848 46.3118C90.8433 47.172 92.5992 47.6022 94.8527 47.6022C97.2818 47.6022 99.1109 47.1864 100.34 46.3548C101.569 45.4946 102.184 44.3047 102.184 42.7849C102.184 41.81 101.877 41.0215 101.262 40.4194C100.677 39.8172 99.7987 39.2867 98.628 38.828C97.4574 38.3692 95.7014 37.7957 93.3602 37.1075C91.0774 36.4767 89.2629 35.8029 87.9167 35.086C86.5704 34.3692 85.5608 33.4803 84.8877 32.4194C84.2145 31.3584 83.878 30.0251 83.878 28.4194C83.878 26.871 84.3023 25.4803 85.151 24.2473C86.029 23.0143 87.2728 22.0538 88.8825 21.3656C90.4921 20.6487 92.409 20.2903 94.6332 20.2903C96.916 20.2903 98.8768 20.6918 100.516 21.4946C102.155 22.2688 103.398 23.2581 104.247 24.4624C105.096 25.6667 105.549 26.871 105.608 28.0753C105.608 28.3047 105.52 28.5054 105.345 28.6774C105.198 28.8495 104.979 28.9355 104.686 28.9355H102.359C101.745 28.9355 101.364 28.6631 101.218 28.1183C101.042 26.914 100.355 25.9247 99.1548 25.1505C97.9549 24.3477 96.4477 23.9462 94.6332 23.9462C92.6431 23.9462 91.0774 24.319 89.936 25.0645C88.7947 25.81 88.224 26.914 88.224 28.3763C88.224 29.3513 88.4874 30.1541 89.0142 30.7849C89.5702 31.4158 90.4043 31.9749 91.5164 32.4624C92.6285 32.9211 94.2528 33.4516 96.3892 34.0538C98.8768 34.7133 100.838 35.4014 102.272 36.1183C103.706 36.8065 104.774 37.681 105.476 38.7419C106.179 39.7742 106.53 41.0932 106.53 42.6989C106.53 45.3656 105.476 47.4588 103.369 48.9785C101.262 50.4982 98.4232 51.2581 94.8527 51.2581Z" fill="#272532"/>
<path d="M115.665 59C115.431 59 115.226 58.914 115.05 58.7419C114.875 58.5699 114.787 58.3692 114.787 58.1398C114.787 57.9391 114.86 57.681 115.006 57.3656L118.387 49.4946L110.002 30.0968C109.856 29.724 109.782 29.4803 109.782 29.3656C109.782 29.1075 109.87 28.8925 110.046 28.7204C110.221 28.5484 110.441 28.4624 110.704 28.4624H112.855C113.324 28.4624 113.675 28.7061 113.909 29.1935L120.582 44.8495L127.43 29.1935C127.664 28.7061 128.03 28.4624 128.527 28.4624H130.591C130.854 28.4624 131.073 28.5484 131.249 28.7204C131.425 28.8925 131.512 29.0932 131.512 29.3226C131.512 29.4086 131.439 29.6667 131.293 30.0968L118.826 58.2688C118.592 58.7563 118.226 59 117.728 59H115.665Z" fill="#272532"/>
<path d="M139.184 50.828C138.891 50.828 138.643 50.7419 138.438 50.5699C138.262 50.3692 138.174 50.1254 138.174 49.8387V31.9032H134.443C134.15 31.9032 133.902 31.8172 133.697 31.6452C133.521 31.4444 133.433 31.2007 133.433 30.914V29.4516C133.433 29.1649 133.521 28.9355 133.697 28.7634C133.902 28.5627 134.15 28.4624 134.443 28.4624H138.174V26.3118C138.174 21.4373 140.691 19 145.725 19H148.359C148.652 19 148.886 19.1004 149.061 19.3011C149.266 19.4731 149.369 19.7025 149.369 19.9892V21.4516C149.369 21.7384 149.266 21.9821 149.061 22.1828C148.886 22.3548 148.652 22.4409 148.359 22.4409H145.813C144.496 22.4409 143.574 22.7849 143.047 23.4731C142.52 24.1326 142.257 25.1505 142.257 26.5269V28.4624H147.92C148.213 28.4624 148.447 28.5627 148.622 28.7634C148.827 28.9355 148.93 29.1649 148.93 29.4516V30.914C148.93 31.2007 148.827 31.4444 148.622 31.6452C148.447 31.8172 148.213 31.9032 147.92 31.9032H142.257V49.8387C142.257 50.1254 142.155 50.3692 141.95 50.5699C141.774 50.7419 141.54 50.828 141.247 50.828H139.184Z" fill="#272532"/>
<path d="M161.694 50.828C157.07 50.828 154.758 48.3047 154.758 43.2581V31.9032H151.334C151.041 31.9032 150.792 31.8172 150.588 31.6452C150.412 31.4444 150.324 31.2007 150.324 30.914V29.4516C150.324 29.1649 150.412 28.9355 150.588 28.7634C150.792 28.5627 151.041 28.4624 151.334 28.4624H154.758V21.2796C154.758 20.9928 154.846 20.7634 155.021 20.5914C155.226 20.3907 155.475 20.2903 155.768 20.2903H157.831C158.124 20.2903 158.358 20.3907 158.533 20.5914C158.738 20.7634 158.841 20.9928 158.841 21.2796V28.4624H164.284C164.577 28.4624 164.811 28.5627 164.986 28.7634C165.191 28.9355 165.294 29.1649 165.294 29.4516V30.914C165.294 31.2007 165.191 31.4444 164.986 31.6452C164.811 31.8172 164.577 31.9032 164.284 31.9032H158.841V42.957C158.841 44.3907 159.089 45.4803 159.587 46.2258C160.084 46.9427 160.904 47.3011 162.045 47.3011H164.723C165.016 47.3011 165.25 47.4014 165.425 47.6022C165.63 47.7742 165.733 48.0036 165.733 48.2903V49.8387C165.733 50.1254 165.63 50.3692 165.425 50.5699C165.25 50.7419 165.016 50.828 164.723 50.828H161.694Z" fill="#272532"/>
<path d="M171.511 50.828C171.218 50.828 170.969 50.7419 170.765 50.5699C170.589 50.3692 170.501 50.1254 170.501 49.8387V21.7527C170.501 21.4373 170.589 21.1935 170.765 21.0215C170.969 20.8208 171.218 20.7204 171.511 20.7204H183.539C186.671 20.7204 189.027 21.4516 190.607 22.914C192.187 24.3763 192.978 26.2975 192.978 28.6774C192.978 30.2832 192.597 31.6165 191.836 32.6774C191.104 33.7384 190.226 34.5125 189.202 35C190.431 35.6022 191.47 36.5341 192.319 37.7957C193.168 39.0573 193.592 40.5054 193.592 42.1398C193.592 43.7455 193.212 45.2079 192.451 46.5269C191.719 47.8459 190.622 48.8925 189.158 49.6667C187.695 50.4409 185.939 50.828 183.89 50.828H171.511ZM182.881 33.4516C184.725 33.4516 186.129 33.0358 187.095 32.2043C188.09 31.3728 188.588 30.2115 188.588 28.7204C188.588 27.2581 188.105 26.1398 187.139 25.3656C186.173 24.5914 184.754 24.2043 182.881 24.2043H174.803V33.4516H182.881ZM183.32 47.3441C185.163 47.3441 186.598 46.8566 187.622 45.8817C188.675 44.9068 189.202 43.6595 189.202 42.1398C189.202 40.5627 188.675 39.3011 187.622 38.3548C186.598 37.3799 185.163 36.8925 183.32 36.8925H174.803V47.3441H183.32Z" fill="#272532"/>
<path d="M208.604 51.2581C205.385 51.2581 202.883 50.3692 201.097 48.5914C199.341 46.8136 198.405 44.448 198.288 41.4946L198.244 39.6452L198.288 37.7957C198.405 34.871 199.356 32.5197 201.141 30.7419C202.927 28.9355 205.414 28.0323 208.604 28.0323C211.794 28.0323 214.282 28.9355 216.067 30.7419C217.852 32.5197 218.803 34.871 218.92 37.7957C218.95 38.1111 218.964 38.7276 218.964 39.6452C218.964 40.5627 218.95 41.1792 218.92 41.4946C218.803 44.448 217.852 46.8136 216.067 48.5914C214.311 50.3692 211.823 51.2581 208.604 51.2581ZM208.604 47.9462C210.448 47.9462 211.897 47.3728 212.95 46.2258C214.033 45.0789 214.618 43.4301 214.706 41.2796C214.735 40.9928 214.75 40.448 214.75 39.6452C214.75 38.8423 214.735 38.2975 214.706 38.0108C214.618 35.8602 214.033 34.2115 212.95 33.0645C211.897 31.9176 210.448 31.3441 208.604 31.3441C206.76 31.3441 205.297 31.9176 204.214 33.0645C203.131 34.2115 202.561 35.8602 202.502 38.0108L202.458 39.6452L202.502 41.2796C202.561 43.4301 203.131 45.0789 204.214 46.2258C205.297 47.3728 206.76 47.9462 208.604 47.9462Z" fill="#272532"/>
<path d="M222.85 50.828C222.616 50.828 222.397 50.7419 222.192 50.5699C222.016 50.3978 221.929 50.1828 221.929 49.9247C221.929 49.6667 222.031 49.4086 222.236 49.1505L229.874 39.3871L222.719 30.1398C222.514 29.9104 222.411 29.6523 222.411 29.3656C222.411 29.1075 222.499 28.8925 222.675 28.7204C222.85 28.5484 223.07 28.4624 223.333 28.4624H225.572C226.011 28.4624 226.392 28.6918 226.713 29.1505L232.552 36.5914L238.391 29.1935C238.566 28.9642 238.727 28.7921 238.874 28.6774C239.049 28.534 239.269 28.4624 239.532 28.4624H241.683C241.946 28.4624 242.166 28.5484 242.342 28.7204C242.517 28.8925 242.605 29.1075 242.605 29.3656C242.605 29.6523 242.502 29.9104 242.298 30.1398L235.054 39.4731L242.693 49.1505C242.898 49.4086 243 49.6667 243 49.9247C243 50.1828 242.912 50.3978 242.737 50.5699C242.561 50.7419 242.342 50.828 242.078 50.828H239.751C239.312 50.828 238.932 50.6129 238.61 50.1828L232.464 42.3118L226.231 50.1828C226.055 50.3835 225.879 50.5412 225.704 50.6559C225.557 50.7706 225.353 50.828 225.089 50.828H222.85Z" fill="#272532"/>
<path d="M61.9518 20.9998L36.0029 35.9997L10.054 20.9998L36.0029 6L61.9518 20.9998Z" fill="url(#paint0_linear_336_759)"/>
<path d="M61.9518 20.9998V50.9995L36.0029 66V35.9997L61.9518 20.9998Z" fill="url(#paint1_linear_336_759)"/>
<path d="M36.0029 35.9997V66L10.054 50.9995V20.9998L36.0029 35.9997Z" fill="url(#paint2_linear_336_759)"/>
<defs>
<linearGradient id="paint0_linear_336_759" x1="10.054" y1="20.9998" x2="61.9518" y2="20.9998" gradientUnits="userSpaceOnUse">
<stop stop-color="#DC7A6E"/>
<stop offset="0.251496" stop-color="#F6A464"/>
<stop offset="0.501247" stop-color="#FDC577"/>
<stop offset="0.753655" stop-color="#EFC381"/>
<stop offset="1" stop-color="#B9D599"/>
</linearGradient>
<linearGradient id="paint1_linear_336_759" x1="61.6349" y1="20.9998" x2="36.0029" y2="66" gradientUnits="userSpaceOnUse">
<stop stop-color="#BFCD94"/>
<stop offset="0.245025" stop-color="#B2D69E"/>
<stop offset="0.504453" stop-color="#8DCCA6"/>
<stop offset="0.745734" stop-color="#5CB8B7"/>
<stop offset="1" stop-color="#4CA5B8"/>
</linearGradient>
<linearGradient id="paint2_linear_336_759" x1="10.054" y1="20.9998" x2="36.0029" y2="66" gradientUnits="userSpaceOnUse">
<stop stop-color="#D7686D"/>
<stop offset="0.225" stop-color="#C64B77"/>
<stop offset="0.485" stop-color="#A2638E"/>
<stop offset="0.703194" stop-color="#758AA8"/>
<stop offset="1" stop-color="#639EAF"/>
</linearGradient>
</defs>
</svg>
